<svg xmlns="http://www.w3.org/2000/svg" viewBox="0 0 32 32" width="32" height="32">
  <defs>
    <linearGradient id="sky" x1="0" y1="0" x2="0" y2="1">
      <stop offset="0%" stop-color="#0ea5e9"/>
      <stop offset="100%" stop-color="#38bdf8"/>
    </linearGradient>
  </defs>
  <circle cx="16" cy="16" r="16" fill="url(#sky)"/>
  <circle cx="16" cy="16" r="10" fill="none" stroke="rgba(255,255,255,0.25)" stroke-width="0.6"/>
  <ellipse cx="16" cy="16" rx="5.5" ry="10" fill="none" stroke="rgba(255,255,255,0.25)" stroke-width="0.6"/>
  <line x1="6" y1="16" x2="26" y2="16" stroke="rgba(255,255,255,0.25)" stroke-width="0.6"/>
  <line x1="7.5" y1="11" x2="24.5" y2="11" stroke="rgba(255,255,255,0.2)" stroke-width="0.5"/>
  <line x1="7.5" y1="21" x2="24.5" y2="21" stroke="rgba(255,255,255,0.2)" stroke-width="0.5"/>
  <path d="M8 15.5 Q14 13 22 15.2 L23.5 16 L22 16.8 Q14 19 8 16.5 Z" fill="white" stroke="white" stroke-width="0.3"/>
  <path d="M22 15.2 L25.5 16 L22 16.8 Z" fill="white"/>
  <path d="M13 15.2 L18 9.5 L20 9.8 L16 15.6 Z" fill="white"/>
  <path d="M9.5 15.4 L11 12.5 L12.5 12.8 L11.5 15.5 Z" fill="white"/>
  <path d="M5 20 Q16 6 27 14" fill="none" stroke="rgba(255,255,255,0.5)" stroke-width="0.8" stroke-dasharray="1.5 2"/>
</svg>
 


